<svg width="1920" height="1080" viewBox="0 0 1920 1080" fill="none" xmlns="http://www.w3.org/2000/svg">
<rect width="1920" height="1080" rx="1" fill="white"/>
<rect x="0.5" y="0.5" width="1919" height="1079" rx="0.5" stroke="#2E5BFF" stroke-opacity="0.08"/>
<path d="M714.543 604C713.324 604 712.227 603.573 711.251 602.72C710.398 601.745 709.971 600.648 709.971 599.429V560.114L667.549 481.851C667.183 480.754 667 480.084 667 479.84C667 478.865 667.366 478.011 668.097 477.28C668.95 476.427 669.926 476 671.023 476H693.88C696.318 476 698.451 477.28 700.28 479.84L726.429 527.017L752.76 479.84C754.223 477.28 756.356 476 759.16 476H782.017C783.114 476 784.029 476.427 784.76 477.28C785.491 478.011 785.857 478.865 785.857 479.84C785.857 480.45 785.735 481.12 785.491 481.851L743.069 560.114V599.429C743.069 600.77 742.581 601.867 741.606 602.72C740.752 603.573 739.655 604 738.314 604H714.543Z" fill="#E50E0F"/>
<path d="M826.272 535.733C819.358 535.733 813.883 534.185 809.845 531.087C805.808 527.99 803.789 523.565 803.789 517.813C803.789 516.541 803.927 515.02 804.204 513.25C804.868 509.268 805.918 504.346 807.356 498.483C809.182 491.127 812.528 485.541 817.395 481.724C822.262 477.908 828.623 476 836.476 476C840.791 476 844.69 476.664 848.174 477.991C851.714 479.319 854.507 481.227 856.554 483.716C858.6 486.204 859.623 489.163 859.623 492.593C859.623 493.809 859.513 494.943 859.291 495.994C859.181 496.492 858.932 496.907 858.545 497.239C858.213 497.57 857.798 497.736 857.3 497.736H846.017C845.243 497.736 844.662 497.598 844.275 497.321C843.943 496.99 843.75 496.409 843.694 495.579C843.75 492.869 843.058 490.933 841.62 489.772C840.182 488.555 838.08 487.947 835.315 487.947C828.678 487.947 824.474 491.597 822.705 498.898C821.543 503.433 820.548 508.079 819.718 512.836C819.497 513.997 819.386 515.159 819.386 516.32C819.386 521.298 822.041 523.787 827.351 523.787C830.061 523.787 832.411 523.206 834.402 522.044C836.394 520.828 838.025 518.864 839.297 516.154C839.684 515.324 840.099 514.771 840.542 514.495C840.984 514.163 841.593 513.997 842.367 513.997H853.65C854.148 513.997 854.535 514.163 854.811 514.495C855.033 514.716 855.143 514.993 855.143 515.324C855.143 515.435 855.115 515.573 855.06 515.739C853.512 521.989 850.248 526.884 845.271 530.424C840.293 533.963 833.96 535.733 826.272 535.733Z" fill="black"/>
<path d="M861.629 534.904C861.02 534.904 860.55 534.71 860.218 534.323C859.942 533.936 859.859 533.438 859.969 532.83L871.418 478.904C871.529 478.295 871.833 477.798 872.331 477.41C872.829 477.023 873.354 476.83 873.907 476.83H884.609C885.218 476.83 885.688 477.023 886.02 477.41C886.296 477.687 886.434 478.046 886.434 478.489C886.434 478.6 886.407 478.738 886.351 478.904L882.12 498.898H902.529L906.76 478.904C906.871 478.295 907.175 477.798 907.673 477.41C908.171 477.023 908.696 476.83 909.249 476.83H919.951C920.56 476.83 921.03 477.023 921.362 477.41C921.638 477.687 921.777 478.046 921.777 478.489C921.777 478.6 921.749 478.738 921.694 478.904L910.162 532.83C910.051 533.438 909.747 533.936 909.249 534.323C908.807 534.71 908.281 534.904 907.673 534.904H896.971C896.362 534.904 895.892 534.71 895.56 534.323C895.284 533.88 895.201 533.383 895.311 532.83L899.709 512.172H879.3L874.903 532.83C874.792 533.438 874.488 533.936 873.99 534.323C873.492 534.71 872.939 534.904 872.331 534.904H861.629Z" fill="black"/>
<path d="M918.219 534.904C917.721 534.904 917.334 534.765 917.057 534.489C916.781 534.157 916.643 533.77 916.643 533.327C916.643 533.051 916.726 532.747 916.892 532.415L947.671 479.153C948.556 477.604 949.8 476.83 951.404 476.83H964.18C965.784 476.83 966.697 477.604 966.918 479.153L975.049 532.415C975.159 533.189 975.021 533.798 974.634 534.24C974.247 534.682 973.749 534.904 973.14 534.904H963.102C961.664 534.904 960.834 534.24 960.613 532.913L959.203 524.699H937.052L932.074 533.161C931.244 534.323 930.221 534.904 929.004 534.904H918.219ZM958.373 512.753L955.303 490.85L942.942 512.753H958.373Z" fill="black"/>
<path d="M983.32 534.904C982.712 534.904 982.242 534.71 981.91 534.323C981.578 533.936 981.467 533.438 981.578 532.83L993.027 478.904C993.138 478.295 993.442 477.798 993.94 477.41C994.437 477.023 994.99 476.83 995.599 476.83H1004.56C1005.89 476.83 1006.74 477.438 1007.13 478.655L1016.17 504.788L1036.33 478.655C1036.61 478.212 1037 477.798 1037.5 477.41C1038.05 477.023 1038.71 476.83 1039.49 476.83H1048.53C1049.14 476.83 1049.61 477.023 1049.94 477.41C1050.16 477.742 1050.27 478.074 1050.27 478.406C1050.27 478.572 1050.24 478.738 1050.19 478.904L1038.74 532.83C1038.63 533.438 1038.32 533.936 1037.83 534.323C1037.33 534.71 1036.8 534.904 1036.25 534.904H1026.21C1025.6 534.904 1025.13 534.71 1024.8 534.323C1024.53 533.88 1024.44 533.383 1024.55 532.83L1031.02 502.216L1018.33 519.058C1017.78 519.666 1017.25 520.136 1016.75 520.468C1016.26 520.8 1015.68 520.966 1015.01 520.966H1010.7C1009.54 520.966 1008.73 520.33 1008.29 519.058L1002.4 501.47L995.765 532.83C995.654 533.438 995.35 533.936 994.852 534.323C994.354 534.71 993.829 534.904 993.276 534.904H983.32Z" fill="black"/>
<path d="M1051.94 534.904C1051.33 534.904 1050.86 534.71 1050.53 534.323C1050.25 533.88 1050.17 533.383 1050.28 532.83L1061.73 478.904C1061.84 478.295 1062.15 477.798 1062.64 477.41C1063.14 477.023 1063.67 476.83 1064.22 476.83H1086.29C1092.43 476.83 1097.35 478.102 1101.06 480.646C1104.82 483.19 1106.7 486.868 1106.7 491.68C1106.7 493.063 1106.53 494.501 1106.2 495.994C1104.82 502.355 1102.02 507.056 1097.82 510.098C1093.67 513.14 1087.97 514.661 1080.73 514.661H1069.53L1065.71 532.83C1065.6 533.438 1065.3 533.936 1064.8 534.323C1064.3 534.71 1063.78 534.904 1063.22 534.904H1051.94ZM1081.31 503.212C1083.63 503.212 1085.65 502.576 1087.37 501.304C1089.14 500.032 1090.3 498.206 1090.85 495.828C1091.02 494.888 1091.1 494.058 1091.1 493.339C1091.1 491.735 1090.63 490.519 1089.69 489.689C1088.75 488.804 1087.14 488.361 1084.88 488.361H1074.92L1071.77 503.212H1081.31Z" fill="black"/>
<path d="M1108.09 534.904C1107.48 534.904 1107.01 534.71 1106.68 534.323C1106.34 533.88 1106.23 533.383 1106.34 532.83L1117.88 478.904C1117.99 478.295 1118.29 477.798 1118.79 477.41C1119.29 477.023 1119.81 476.83 1120.37 476.83H1131.57C1132.17 476.83 1132.64 477.023 1132.98 477.41C1133.2 477.742 1133.31 478.074 1133.31 478.406C1133.31 478.572 1133.28 478.738 1133.22 478.904L1121.78 532.83C1121.67 533.438 1121.36 533.936 1120.86 534.323C1120.37 534.71 1119.84 534.904 1119.29 534.904H1108.09Z" fill="black"/>
<path d="M1157.72 535.733C1151.14 535.733 1145.74 534.185 1141.54 531.087C1137.39 527.935 1135.32 523.455 1135.32 517.647C1135.32 516.431 1135.46 514.937 1135.73 513.167C1136.45 509.185 1137.47 504.401 1138.8 498.815C1142.56 483.605 1152.27 476 1167.92 476C1172.18 476 1176 476.719 1179.37 478.157C1182.74 479.54 1185.4 481.641 1187.33 484.462C1189.27 487.228 1190.24 490.546 1190.24 494.418C1190.24 495.579 1190.1 497.045 1189.82 498.815C1188.99 503.737 1188 508.521 1186.84 513.167C1184.9 520.745 1181.55 526.414 1176.8 530.175C1172.04 533.88 1165.68 535.733 1157.72 535.733ZM1158.88 523.787C1161.98 523.787 1164.6 522.874 1166.76 521.049C1168.97 519.224 1170.55 516.431 1171.49 512.67C1172.76 507.471 1173.73 502.935 1174.39 499.064C1174.61 497.902 1174.72 496.713 1174.72 495.496C1174.72 490.463 1172.1 487.947 1166.84 487.947C1163.75 487.947 1161.09 488.859 1158.88 490.684C1156.72 492.51 1155.17 495.303 1154.23 499.064C1153.24 502.769 1152.24 507.305 1151.25 512.67C1151.02 513.776 1150.91 514.937 1150.91 516.154C1150.91 521.242 1153.57 523.787 1158.88 523.787Z" fill="black"/>
<path d="M1194.05 534.904C1193.44 534.904 1192.97 534.71 1192.64 534.323C1192.36 533.88 1192.28 533.383 1192.39 532.83L1203.84 478.904C1203.95 478.295 1204.25 477.798 1204.75 477.41C1205.25 477.023 1205.77 476.83 1206.33 476.83H1215.12C1216.45 476.83 1217.28 477.355 1217.61 478.406L1231.13 510.513L1237.85 478.904C1237.96 478.295 1238.27 477.798 1238.76 477.41C1239.26 477.023 1239.79 476.83 1240.34 476.83H1250.3C1250.9 476.83 1251.37 477.023 1251.71 477.41C1251.98 477.687 1252.12 478.046 1252.12 478.489C1252.12 478.6 1252.09 478.738 1252.04 478.904L1240.51 532.747C1240.4 533.355 1240.09 533.88 1239.59 534.323C1239.15 534.71 1238.63 534.904 1238.02 534.904H1229.22C1228.45 534.904 1227.9 534.765 1227.56 534.489C1227.23 534.157 1226.96 533.77 1226.73 533.327L1213.05 502.382L1206.57 532.83C1206.46 533.438 1206.16 533.936 1205.66 534.323C1205.16 534.71 1204.61 534.904 1204 534.904H1194.05Z" fill="black"/>
<path d="M817.016 604.001C812.781 604.001 809.557 602.863 807.345 600.587C805.164 598.312 803.994 595.167 803.836 591.153C803.805 590.3 803.789 588.909 803.789 586.981C803.789 585.022 803.805 583.6 803.836 582.715C803.994 578.732 805.18 575.603 807.392 573.328C809.604 571.021 812.812 569.867 817.016 569.867C819.829 569.867 822.215 570.373 824.174 571.384C826.134 572.364 827.619 573.66 828.631 575.272C829.642 576.883 830.195 578.606 830.29 580.439V580.534C830.29 580.787 830.179 581.008 829.958 581.198C829.768 581.356 829.547 581.435 829.294 581.435H826.687C826.055 581.435 825.66 581.071 825.502 580.344C824.964 577.974 824 576.315 822.61 575.366C821.219 574.387 819.354 573.897 817.016 573.897C811.58 573.897 808.767 576.915 808.577 582.952C808.546 583.805 808.53 585.117 808.53 586.886C808.53 588.656 808.546 590 808.577 590.916C808.767 596.953 811.58 599.971 817.016 599.971C819.354 599.971 821.219 599.497 822.61 598.549C824.032 597.569 824.996 595.894 825.502 593.523C825.596 593.113 825.739 592.828 825.928 592.67C826.118 592.512 826.371 592.433 826.687 592.433H829.294C829.579 592.433 829.816 592.528 830.005 592.718C830.227 592.876 830.321 593.097 830.29 593.381C830.195 595.246 829.642 596.984 828.631 598.596C827.619 600.208 826.134 601.52 824.174 602.531C822.215 603.511 819.829 604.001 817.016 604.001Z" fill="black"/>
<path d="M853.378 603.526C853.062 603.526 852.793 603.432 852.572 603.242C852.382 603.021 852.288 602.752 852.288 602.436V571.479C852.288 571.131 852.382 570.863 852.572 570.673C852.793 570.452 853.062 570.341 853.378 570.341H864.945C868.58 570.341 871.424 571.195 873.479 572.901C875.533 574.608 876.56 577.073 876.56 580.297C876.56 582.699 875.96 584.674 874.759 586.223C873.589 587.771 871.93 588.846 869.781 589.446L877.082 602.057C877.176 602.246 877.224 602.42 877.224 602.578C877.224 602.831 877.113 603.052 876.892 603.242C876.702 603.432 876.481 603.526 876.228 603.526H873.953C873.479 603.526 873.099 603.416 872.815 603.195C872.562 602.973 872.325 602.657 872.104 602.246L865.23 590.205H856.934V602.436C856.934 602.752 856.823 603.021 856.602 603.242C856.38 603.432 856.112 603.526 855.796 603.526H853.378ZM864.756 586.175C869.465 586.175 871.819 584.2 871.819 580.249C871.819 576.299 869.465 574.323 864.756 574.323H856.934V586.175H864.756Z" fill="black"/>
<path d="M900.087 603.526C899.771 603.526 899.503 603.432 899.281 603.242C899.092 603.021 898.997 602.752 898.997 602.436V571.479C898.997 571.131 899.092 570.863 899.281 570.673C899.503 570.452 899.771 570.341 900.087 570.341H902.458C902.963 570.341 903.374 570.594 903.69 571.1L913.693 590.252L923.791 571.1C923.854 570.91 923.981 570.736 924.17 570.578C924.391 570.42 924.66 570.341 924.976 570.341H927.299C927.647 570.341 927.915 570.452 928.105 570.673C928.326 570.863 928.437 571.131 928.437 571.479V602.436C928.437 602.752 928.326 603.021 928.105 603.242C927.884 603.432 927.615 603.526 927.299 603.526H924.976C924.66 603.526 924.391 603.432 924.17 603.242C923.981 603.021 923.886 602.752 923.886 602.436V579.112L915.969 594.566C915.653 595.23 915.147 595.562 914.452 595.562H912.982C912.287 595.562 911.781 595.23 911.465 594.566L903.501 579.112V602.436C903.501 602.752 903.39 603.021 903.169 603.242C902.979 603.432 902.726 603.526 902.41 603.526H900.087Z" fill="black"/>
<path d="M990.212 604.001C987.588 604.001 985.313 603.59 983.385 602.768C981.489 601.946 980.035 600.872 979.023 599.544C978.012 598.185 977.475 596.731 977.412 595.183C977.412 594.93 977.506 594.709 977.696 594.519C977.917 594.298 978.17 594.187 978.455 594.187H980.872C981.473 594.187 981.884 594.503 982.105 595.135C982.389 596.463 983.195 597.601 984.523 598.549C985.882 599.497 987.778 599.971 990.212 599.971C992.835 599.971 994.81 599.513 996.138 598.596C997.465 597.648 998.129 596.336 998.129 594.661C998.129 593.587 997.797 592.718 997.133 592.054C996.501 591.39 995.553 590.805 994.289 590.3C993.024 589.794 991.128 589.162 988.6 588.403C986.135 587.708 984.175 586.965 982.721 586.175C981.267 585.385 980.177 584.405 979.45 583.236C978.723 582.067 978.36 580.597 978.36 578.827C978.36 577.121 978.818 575.588 979.735 574.229C980.683 572.87 982.026 571.811 983.764 571.052C985.502 570.262 987.573 569.867 989.975 569.867C992.44 569.867 994.557 570.31 996.327 571.195C998.097 572.048 999.44 573.138 1000.36 574.466C1001.27 575.793 1001.76 577.121 1001.83 578.448C1001.83 578.701 1001.73 578.922 1001.54 579.112C1001.38 579.301 1001.15 579.396 1000.83 579.396H998.318C997.655 579.396 997.244 579.096 997.086 578.495C996.896 577.168 996.153 576.078 994.858 575.224C993.562 574.339 991.934 573.897 989.975 573.897C987.825 573.897 986.135 574.308 984.902 575.129C983.669 575.951 983.053 577.168 983.053 578.78C983.053 579.854 983.338 580.739 983.906 581.435C984.507 582.13 985.408 582.746 986.609 583.283C987.81 583.789 989.564 584.374 991.871 585.038C994.557 585.764 996.675 586.523 998.223 587.313C999.772 588.072 1000.93 589.036 1001.68 590.205C1002.44 591.343 1002.82 592.797 1002.82 594.566C1002.82 597.506 1001.68 599.813 999.409 601.488C997.133 603.163 994.067 604.001 990.212 604.001Z" fill="black"/>
<path d="M1033.43 603.526C1033.12 603.526 1032.85 603.432 1032.63 603.242C1032.44 603.021 1032.34 602.752 1032.34 602.436V591.248L1020.92 571.906C1020.92 571.842 1020.9 571.748 1020.87 571.621C1020.81 571.495 1020.77 571.384 1020.77 571.289C1020.77 571.037 1020.87 570.815 1021.06 570.626C1021.25 570.436 1021.47 570.341 1021.72 570.341H1024.19C1024.72 570.341 1025.14 570.61 1025.42 571.147L1034.66 586.507L1043.91 571.147C1044.26 570.61 1044.68 570.341 1045.19 570.341H1047.61C1047.89 570.341 1048.13 570.436 1048.32 570.626C1048.51 570.815 1048.6 571.037 1048.6 571.289C1048.6 571.447 1048.54 571.653 1048.41 571.906L1037.03 591.248V602.436C1037.03 602.752 1036.92 603.021 1036.7 603.242C1036.48 603.432 1036.21 603.526 1035.9 603.526H1033.43Z" fill="black"/>
<path d="M1079.37 604.001C1076.75 604.001 1074.47 603.59 1072.54 602.768C1070.65 601.946 1069.19 600.872 1068.18 599.544C1067.17 598.185 1066.63 596.731 1066.57 595.183C1066.57 594.93 1066.67 594.709 1066.86 594.519C1067.08 594.298 1067.33 594.187 1067.61 594.187H1070.03C1070.63 594.187 1071.04 594.503 1071.26 595.135C1071.55 596.463 1072.35 597.601 1073.68 598.549C1075.04 599.497 1076.94 599.971 1079.37 599.971C1081.99 599.971 1083.97 599.513 1085.3 598.596C1086.62 597.648 1087.29 596.336 1087.29 594.661C1087.29 593.587 1086.96 592.718 1086.29 592.054C1085.66 591.39 1084.71 590.805 1083.45 590.3C1082.18 589.794 1080.29 589.162 1077.76 588.403C1075.29 587.708 1073.33 586.965 1071.88 586.175C1070.43 585.385 1069.34 584.405 1068.61 583.236C1067.88 582.067 1067.52 580.597 1067.52 578.827C1067.52 577.121 1067.98 575.588 1068.89 574.229C1069.84 572.87 1071.19 571.811 1072.92 571.052C1074.66 570.262 1076.73 569.867 1079.13 569.867C1081.6 569.867 1083.72 570.31 1085.49 571.195C1087.26 572.048 1088.6 573.138 1089.52 574.466C1090.43 575.793 1090.92 577.121 1090.99 578.448C1090.99 578.701 1090.89 578.922 1090.7 579.112C1090.54 579.301 1090.31 579.396 1089.99 579.396H1087.48C1086.81 579.396 1086.4 579.096 1086.24 578.495C1086.06 577.168 1085.31 576.078 1084.02 575.224C1082.72 574.339 1081.09 573.897 1079.13 573.897C1076.98 573.897 1075.29 574.308 1074.06 575.129C1072.83 575.951 1072.21 577.168 1072.21 578.78C1072.21 579.854 1072.5 580.739 1073.07 581.435C1073.67 582.13 1074.57 582.746 1075.77 583.283C1076.97 583.789 1078.72 584.374 1081.03 585.038C1083.72 585.764 1085.83 586.523 1087.38 587.313C1088.93 588.072 1090.08 589.036 1090.84 590.205C1091.6 591.343 1091.98 592.797 1091.98 594.566C1091.98 597.506 1090.84 599.813 1088.57 601.488C1086.29 603.163 1083.23 604.001 1079.37 604.001Z" fill="black"/>
<path d="M1121.81 603.526C1121.5 603.526 1121.23 603.432 1121.01 603.242C1120.82 603.021 1120.72 602.752 1120.72 602.436V574.561H1111.62C1111.3 574.561 1111.04 574.466 1110.81 574.276C1110.62 574.055 1110.53 573.786 1110.53 573.47V571.479C1110.53 571.163 1110.62 570.894 1110.81 570.673C1111.04 570.452 1111.3 570.341 1111.62 570.341H1134.47C1134.82 570.341 1135.09 570.452 1135.28 570.673C1135.5 570.863 1135.61 571.131 1135.61 571.479V573.47C1135.61 573.786 1135.5 574.055 1135.28 574.276C1135.06 574.466 1134.79 574.561 1134.47 574.561H1125.42V602.436C1125.42 602.752 1125.31 603.021 1125.08 603.242C1124.86 603.432 1124.59 603.526 1124.28 603.526H1121.81Z" fill="black"/>
<path d="M1157.66 603.526C1157.34 603.526 1157.07 603.432 1156.85 603.242C1156.66 603.021 1156.57 602.752 1156.57 602.436V571.479C1156.57 571.131 1156.66 570.863 1156.85 570.673C1157.07 570.452 1157.34 570.341 1157.66 570.341H1177.24C1177.55 570.341 1177.81 570.452 1178 570.673C1178.22 570.863 1178.33 571.131 1178.33 571.479V573.281C1178.33 573.597 1178.23 573.865 1178.04 574.086C1177.85 574.276 1177.58 574.371 1177.24 574.371H1161.12V584.753H1176.19C1176.51 584.753 1176.76 584.864 1176.95 585.085C1177.17 585.275 1177.28 585.543 1177.28 585.891V587.645C1177.28 587.961 1177.17 588.23 1176.95 588.451C1176.76 588.641 1176.51 588.735 1176.19 588.735H1161.12V599.497H1177.62C1177.96 599.497 1178.23 599.592 1178.42 599.781C1178.61 599.971 1178.71 600.24 1178.71 600.587V602.436C1178.71 602.752 1178.6 603.021 1178.37 603.242C1178.18 603.432 1177.93 603.526 1177.62 603.526H1157.66Z" fill="black"/>
<path d="M1202.05 603.526C1201.74 603.526 1201.47 603.432 1201.25 603.242C1201.06 603.021 1200.96 602.752 1200.96 602.436V571.479C1200.96 571.131 1201.06 570.863 1201.25 570.673C1201.47 570.452 1201.74 570.341 1202.05 570.341H1204.42C1204.93 570.341 1205.34 570.594 1205.65 571.1L1215.66 590.252L1225.76 571.1C1225.82 570.91 1225.95 570.736 1226.13 570.578C1226.36 570.42 1226.62 570.341 1226.94 570.341H1229.26C1229.61 570.341 1229.88 570.452 1230.07 570.673C1230.29 570.863 1230.4 571.131 1230.4 571.479V602.436C1230.4 602.752 1230.29 603.021 1230.07 603.242C1229.85 603.432 1229.58 603.526 1229.26 603.526H1226.94C1226.62 603.526 1226.36 603.432 1226.13 603.242C1225.95 603.021 1225.85 602.752 1225.85 602.436V579.112L1217.93 594.566C1217.62 595.23 1217.11 595.562 1216.42 595.562H1214.95C1214.25 595.562 1213.75 595.23 1213.43 594.566L1205.47 579.112V602.436C1205.47 602.752 1205.35 603.021 1205.13 603.242C1204.94 603.432 1204.69 603.526 1204.37 603.526H1202.05Z" fill="black"/>
</svg>
